<svg xmlns="http://www.w3.org/2000/svg" viewBox="0 0 48 48"><defs><style>.cls-1{fill:#65b1fc;}.cls-2{fill:#fff;}.cls-3{fill:#256494;}</style></defs><title>18-Pacman Game</title><g id="_18-Pacman_Game" data-name="18-Pacman Game"><g id="_Group_" data-name="&lt;Group&gt;"><circle class="cls-1" cx="36" cy="36" r="2"/><circle class="cls-1" cx="31" cy="41" r="2"/><circle class="cls-1" cx="29" cy="34" r="2"/><path class="cls-1" d="M20,36v2a1,1,0,0,1-1,1H17v2a1,1,0,0,1-1,1H14a1,1,0,0,1-1-1V39H11a1,1,0,0,1-1-1V36a1,1,0,0,1,1-1h2V33a1,1,0,0,1,1-1h2a1,1,0,0,1,1,1v2h2A1,1,0,0,1,20,36Z"/><path class="cls-2" d="M42,3V45a2.006,2.006,0,0,1-2,2H8a2.006,2.006,0,0,1-2-2V3A2.006,2.006,0,0,1,8,1H40A2.006,2.006,0,0,1,42,3ZM38,27V5H10V27Zm0,9a2,2,0,1,0-2,2A2.006,2.006,0,0,0,38,36Zm-5,5a2,2,0,1,0-2,2A2.006,2.006,0,0,0,33,41Zm-2-7a2,2,0,1,0-2,2A2.006,2.006,0,0,0,31,34ZM20,38V36a1,1,0,0,0-1-1H17V33a1,1,0,0,0-1-1H14a1,1,0,0,0-1,1v2H11a1,1,0,0,0-1,1v2a1,1,0,0,0,1,1h2v2a1,1,0,0,0,1,1h2a1,1,0,0,0,1-1V39h2A1,1,0,0,0,20,38Z"/><polygon class="cls-1" points="38 20 38 27 10 27 10 5 38 5 38 12 38 20"/><path class="cls-3" d="M40,48H8a3,3,0,0,1-3-3V3A3,3,0,0,1,8,0H40a3,3,0,0,1,3,3V45A3,3,0,0,1,40,48ZM8,2A1,1,0,0,0,7,3V45a1,1,0,0,0,1,1H40a1,1,0,0,0,1-1V3a1,1,0,0,0-1-1Z"/><path class="cls-3" d="M38,28H10a1,1,0,0,1-1-1V5a1,1,0,0,1,1-1H38a1,1,0,0,1,1,1v7H37V6H11V26H37V20h2v7A1,1,0,0,1,38,28Z"/><path class="cls-3" d="M16,43H14a2,2,0,0,1-2-2V40H11a2,2,0,0,1-2-2V36a2,2,0,0,1,2-2h1V33a2,2,0,0,1,2-2h2a2,2,0,0,1,2,2v1h1a2,2,0,0,1,2,2v2a2,2,0,0,1-2,2H18v1A2,2,0,0,1,16,43Zm-5-7v2h2a1,1,0,0,1,1,1v2h2V39a1,1,0,0,1,1-1h2V36H17a1,1,0,0,1-1-1V33H14v2a1,1,0,0,1-1,1Z"/><path class="cls-3" d="M31,44a3,3,0,1,1,3-3A3,3,0,0,1,31,44Zm0-4a1,1,0,1,0,1,1A1,1,0,0,0,31,40Z"/><path class="cls-3" d="M36,39a3,3,0,1,1,3-3A3,3,0,0,1,36,39Zm0-4a1,1,0,1,0,1,1A1,1,0,0,0,36,35Z"/><path class="cls-3" d="M29,37a3,3,0,1,1,3-3A3,3,0,0,1,29,37Zm0-4a1,1,0,1,0,1,1A1,1,0,0,0,29,33Z"/></g><rect class="cls-3" x="33" y="15" width="2" height="2"/><rect class="cls-3" x="29" y="15" width="2" height="2"/><rect class="cls-3" x="37" y="15" width="2" height="2"/><g id="_Group_2" data-name="&lt;Group&gt;"><path class="cls-2" d="M27.95,11.05,23,16l4.95,4.95a7,7,0,1,1,0-9.9Z"/><path class="cls-3" d="M23,24a8,8,0,1,1,5.657-13.657,1,1,0,0,1,0,1.414L24.414,16l4.243,4.243a1,1,0,0,1,0,1.414A7.948,7.948,0,0,1,23,24Zm0-14a6,6,0,1,0,3.478,10.892l-4.185-4.185a1,1,0,0,1,0-1.414l4.185-4.185A5.958,5.958,0,0,0,23,10Z"/></g></g></svg>